<svg width="24" height="24" viewBox="0 0 24 24" fill="none" xmlns="http://www.w3.org/2000/svg">
<path d="M13 21C11.7667 21 10.6123 20.7707 9.537 20.312C8.46167 19.8533 7.516 19.2243 6.7 18.425L8.125 17C8.75833 17.6167 9.49167 18.1043 10.325 18.463C11.1583 18.8217 12.05 19.0007 13 19C14.9333 19 16.5833 18.3167 17.95 16.95C19.3167 15.5833 20 13.9333 20 12C20 10.0667 19.3167 8.41667 17.95 7.05C16.5833 5.68333 14.9333 5 13 5C11.0667 5 9.41667 5.68333 8.05 7.05C6.68333 8.41667 6 10.0667 6 12V12.175L7.825 10.35L9.25 11.75L5 16L0.75 11.75L2.175 10.35L4 12.2V12C4 10.75 4.23767 9.579 4.713 8.487C5.18833 7.395 5.83 6.445 6.638 5.637C7.446 4.829 8.396 4.18767 9.488 3.713C10.58 3.23833 11.7507 3.00067 13 3C14.25 3 15.421 3.23767 16.513 3.713C17.605 4.18833 18.555 4.82967 19.363 5.637C20.171 6.44567 20.8127 7.39567 21.288 8.487C21.7633 9.57833 22.0007 10.7493 22 12C22 14.5 21.125 16.625 19.375 18.375C17.625 20.125 15.5 21 13 21ZM11 16C10.7167 16 10.479 15.904 10.287 15.712C10.095 15.52 9.99933 15.2827 10 15V12C10 11.7167 10.096 11.479 10.288 11.287C10.48 11.095 10.7173 10.9993 11 11V10C11 9.45 11.196 8.979 11.588 8.587C11.98 8.195 12.4507 7.99933 13 8C13.55 8 14.021 8.196 14.413 8.588C14.805 8.98 15.0007 9.45067 15 10V11C15.2833 11 15.521 11.096 15.713 11.288C15.905 11.48 16.0007 11.7173 16 12V15C16 15.2833 15.904 15.521 15.712 15.713C15.52 15.905 15.2827 16.0007 15 16H11ZM12 11H14V10C14 9.71667 13.904 9.479 13.712 9.287C13.52 9.095 13.2827 8.99933 13 9C12.7167 9 12.479 9.096 12.287 9.288C12.095 9.48 11.9993 9.71733 12 10V11Z" fill="#161616"/>
</svg>
