<svg width="24" height="24" viewBox="0 0 24 24" fill="none" xmlns="http://www.w3.org/2000/svg">
<path d="M12 21L0 9C1.58333 7.38333 3.41267 6.14567 5.488 5.287C7.56333 4.42833 9.734 3.99933 12 4C14.2667 4 16.4377 4.42933 18.513 5.288C20.5883 6.14667 22.4173 7.384 24 9L21.575 11.425C21.175 11.2417 20.754 11.104 20.312 11.012C19.87 10.92 19.4327 10.8747 19 10.876C17.3 10.876 15.854 11.472 14.662 12.664C13.47 13.856 12.8743 15.3013 12.875 17C12.875 17.2167 12.8877 17.4377 12.913 17.663C12.9383 17.8883 12.9717 18.109 13.013 18.325C13.0543 18.5417 13.1083 18.7543 13.175 18.963C13.2417 19.1717 13.325 19.3757 13.425 19.575L12 21ZM18 21V18H15V16H18V13H20V16H23V18H20V21H18Z" fill="#161616"/>
</svg>
